# xmcd CD Database Entry
#
# Track frame offsets:
# 150
# 13338
# 26423
# 37518
# 49343
# 61570
# 74149
# 87194
# 101819
# 113549
# 125146
# 142718
# 156266
# 170048
# 180935
# 194027
# 207634
# 221889
# 232912
# 246374
#
# Disc length: 3442 seconds
#
# Revision: 1
# Processed by: cddbd v1.4b41PL1 Copyright (c) Steve Scherf et al.
# Submitted via: tcd 2.0b
#
DISCID=210d7014
DTITLE=Sam and Dave - Greatest Hits
DYEAR=1900
DGENRE=
TTITLE0=Soul Man
TTITLE1=I Thank You
TTITLE2=You Don't Know What You Mean To Me
TTITLE3=Hold On! I'm a Comin'
TTITLE4=You Don't Know Like I Know
TTITLE5=Said I Wasn't Gonna Tell Nobody
TTITLE6=You Got Me Hummin'
TTITLE7=When Something is Wrong With My Baby
TTITLE8=Soothe Me
TTITLE9=Can't You Find Another Way (Of Doing It)
TTITLE10=Cupid
TTITLE11=Don't Pull Your Love
TTITLE12=Summertime
TTITLE13=Bring It On Home To Me
TTITLE14=(Sittin' On) The Dock Of The Bay
TTITLE15=Wonderful World
TTITLE16=You Send Me
TTITLE17=Another Saturday Night
TTITLE18=Gimme Some Lovin'
TTITLE19=Soul Sister/Brown Sugar
EXTD=
EXTT0=
EXTT1=
EXTT2=
EXTT3=
EXTT4=
EXTT5=
EXTT6=
EXTT7=
EXTT8=
EXTT9=
EXTT10=
EXTT11=
EXTT12=
EXTT13=
EXTT14=
EXTT15=
EXTT16=
EXTT17=
EXTT18=
EXTT19=
PLAYORDER=
